<?xml version="1.0" standalone="no"?>
<!DOCTYPE svg PUBLIC "-//W3C//DTD SVG 20010904//EN"
 "http://www.w3.org/TR/2001/REC-SVG-20010904/DTD/svg10.dtd">
<svg version="1.0" xmlns="http://www.w3.org/2000/svg"
 width="200.000000pt" height="200.000000pt" viewBox="0 0 200.000000 200.000000"
 preserveAspectRatio="xMidYMid meet">

<g transform="translate(0.000000,200.000000) scale(0.100000,-0.100000)"
fill="#000000" stroke="none">
<path d="M878 1990 c-152 -27 -267 -89 -384 -205 -148 -148 -214 -304 -214
-510 0 -317 212 -718 618 -1168 l97 -107 90 93 c231 237 455 564 552 804 111
276 112 501 2 716 -33 64 -63 102 -133 172 -99 99 -177 146 -301 185 -79 24
-249 35 -327 20z m263 -206 c254 -75 418 -323 381 -578 -28 -196 -167 -364
-352 -428 -91 -32 -258 -32 -345 0 -183 68 -319 235 -347 428 -10 69 -9 94 5
165 39 198 164 340 357 406 81 28 219 31 301 7z"/>
<path d="M783 1595 c-39 -17 -53 -42 -53 -97 0 -35 -4 -45 -22 -53 -21 -9 -23
-17 -23 -85 0 -68 2 -76 23 -85 21 -9 22 -16 22 -107 0 -79 3 -98 14 -98 10 0
16 -14 18 -42 3 -37 7 -43 33 -51 18 -5 41 -4 58 2 23 9 27 16 27 51 l0 41
118 -3 117 -3 5 -40 c4 -33 10 -41 35 -48 18 -5 41 -4 58 2 23 9 27 16 27 51
0 29 4 40 15 40 12 0 15 18 15 98 0 91 1 98 23 107 20 9 22 17 22 85 0 68 -2
76 -22 85 -18 8 -23 18 -23 47 0 57 -16 87 -55 103 -48 21 -385 21 -432 0z
m187 -215 l0 -110 -95 0 -95 0 0 110 0 110 95 0 95 0 0 -110z m250 0 l0 -110
-95 0 -95 0 0 110 0 110 95 0 95 0 0 -110z m-376 -196 c19 -18 19 -20 6 -45
-19 -34 -80 -19 -80 21 0 38 46 53 74 24z m380 -6 c24 -40 -44 -80 -71 -42
-17 23 -16 29 3 49 20 20 53 16 68 -7z"/>
</g>
</svg>
