<svg version="1.2" xmlns="http://www.w3.org/2000/svg" viewBox="0 0 3339 3339" width="3339" height="3339"><defs><clipPath clipPathUnits="userSpaceOnUse" id="cp1"><path d="m-2503-2133h8333v8333h-8333z"/></clipPath></defs><style></style><g clip-path="url(#cp1)"><path fill-rule="evenodd" d="m1398.4 135.4c64.5-84.8 164.8-134.6 271.3-134.6 106.5 0 206.9 49.8 271.3 134.6 17.1 22.5 34.1 44.8 50.2 65.9 31.3 41.3 86.6 56.1 134.4 36 24.4-10.2 50.3-21.1 76.3-32 98.2-41.3 210.1-34.2 302.3 19.1 92.2 53.2 154.2 146.5 167.6 252.2 0 0 10.5 82.2 10.5 82.2 6.5 51.4 47 91.8 98.4 98.3l82.1 10.5c105.7 13.4 199 75.4 252.3 167.6 53.2 92.3 60.3 204.1 19 302.3-10.9 26.1-21.7 51.9-32 76.4-20.1 47.7-5.3 103 36 134.4 21.1 16 43.4 33 66 50.1 84.8 64.4 134.5 164.8 134.5 271.3 0 106.5-49.7 206.9-134.5 271.3-22.6 17.1-44.9 34-66 50.1-41.3 31.3-56.1 86.6-36 134.4 10.3 24.5 21.1 50.3 32 76.4 41.3 98.2 34.2 210-19 302.2-53.3 92.3-146.6 154.3-252.3 167.7 0 0-82.1 10.4-82.1 10.4-51.4 6.5-91.9 47-98.4 98.4l-10.5 82.2c-13.4 105.6-75.4 199-167.6 252.2-92.2 53.3-204.1 60.3-302.3 19.1-26-10.9-51.9-21.8-76.3-32.1-47.8-20-103.1-5.2-134.4 36-16.1 21.2-33.1 43.5-50.2 66-64.4 84.8-164.8 134.6-271.3 134.6-106.5 0-206.8-49.8-271.3-134.6-17.1-22.5-34-44.8-50.1-66-31.3-41.2-86.6-56-134.4-36-24.5 10.3-50.3 21.2-76.4 32.1-98.2 41.2-210 34.2-302.2-19.1-92.3-53.2-154.3-146.6-167.7-252.2 0 0-10.4-82.2-10.4-82.2-6.5-51.4-47-91.9-98.4-98.4l-82.2-10.4c-105.6-13.4-198.9-75.4-252.2-167.7-53.2-92.2-60.3-204-19.1-302.2 11-26.1 21.8-51.9 32.1-76.4 20-47.8 5.2-103.1-36-134.4-21.2-16.1-43.5-33-66-50.1-84.8-64.4-134.6-164.8-134.6-271.3 0-106.5 49.8-206.9 134.6-271.3 22.5-17.1 44.8-34.1 66-50.1 41.2-31.4 56-86.7 36-134.4-10.3-24.5-21.1-50.3-32.1-76.4-41.2-98.2-34.1-210 19.1-302.3 53.3-92.2 146.6-154.2 252.2-167.6 0 0 82.2-10.5 82.2-10.5 51.4-6.5 91.9-46.9 98.4-98.3l10.4-82.2c13.4-105.7 75.4-199 167.7-252.2 92.2-53.3 204-60.4 302.2-19.1 26.1 10.9 51.9 21.8 76.4 32 47.8 20.1 103.1 5.3 134.4-36 16.1-21.1 33-43.4 50.1-65.9zm-329.8 2296.1l1362.9-1363c44.3-44.3 44.3-116.3 0-160.6-44.3-44.3-116.3-44.3-160.6 0l-1362.9 1362.9c-44.4 44.4-44.4 116.3 0 160.7 44.3 44.3 116.3 44.3 160.6 0zm1055.4-648.2c-188 0-340.7 152.6-340.7 340.7 0 188 152.7 340.7 340.7 340.7 188.1 0 340.8-152.7 340.8-340.7 0-188.1-152.7-340.7-340.8-340.7zm0 227.1c62.7 0 113.6 50.9 113.6 113.6 0 62.7-50.9 113.6-113.6 113.6-62.6 0-113.5-50.9-113.5-113.6 0-62.7 50.9-113.6 113.5-113.6zm-908.6-1135.8c-188 0-340.7 152.7-340.7 340.8 0 188 152.7 340.7 340.7 340.7 188.1 0 340.8-152.7 340.8-340.7 0-188.1-152.7-340.8-340.8-340.8zm0 227.2c62.7 0 113.6 50.9 113.6 113.6 0 62.7-50.9 113.5-113.6 113.5-62.7 0-113.6-50.8-113.6-113.5 0-62.7 50.9-113.6 113.6-113.6z"/></g></svg>