<svg width="11" height="15" viewBox="0 0 11 15" fill="none" xmlns="http://www.w3.org/2000/svg">
<mask id="mask0_11_3" style="mask-type:luminance" maskUnits="userSpaceOnUse" x="0" y="0" width="11" height="15">
<path d="M0 0H11V14.9531H0V0Z" fill="white"/>
</mask>
<g mask="url(#mask0_11_3)">
<path d="M7.03126 10.7188C8.36459 8.47917 9.82293 6 9.82293 4.64583C9.82293 2.08333 7.86459 0 5.45314 0C3.04168 0 1.08334 2.08333 1.08334 4.64583C1.08334 5.92188 2.59897 8.53646 3.89064 10.724C2.00001 10.9167 0.00521851 11.4896 0.00521851 12.5729C0.00521851 13.1615 0.604176 13.6562 1.73959 14.0104C4.94272 15 10.9948 14.4427 10.9948 12.5729C10.9948 11.4688 8.95834 10.901 7.03126 10.7188ZM5.45314 12.2135C4.3073 10.1719 1.67189 6.09896 1.67189 4.64583C1.67189 2.42708 3.3698 0.625 5.45314 0.625C7.54168 0.625 9.23959 2.42708 9.23959 4.64583C9.23959 6.19271 6.60939 10.1563 5.45314 12.2135Z" fill="black"/>
</g>
<path d="M5.45315 2.23438C4.28648 2.23438 3.33856 3.24479 3.33856 4.48438C3.33856 5.72396 4.28648 6.73438 5.45315 6.73438C6.61981 6.73438 7.56773 5.72396 7.56773 4.48438C7.56773 3.24479 6.61981 2.23438 5.45315 2.23438ZM5.45315 6.10938C4.6094 6.10938 3.9271 5.38021 3.9271 4.48438C3.9271 3.58854 4.6094 2.85938 5.45315 2.85938C6.2969 2.85938 6.97919 3.58854 6.97919 4.48438C6.97919 5.38021 6.2969 6.10938 5.45315 6.10938Z" fill="black"/>
</svg>
