<svg width="16" height="13" viewBox="0 0 16 13" fill="none" xmlns="http://www.w3.org/2000/svg">
<mask id="mask0_1_8001" style="mask-type:luminance" maskUnits="userSpaceOnUse" x="0" y="0" width="16" height="13">
<path d="M0.645844 0.229187H15.6458V12.2292H0.645844V0.229187Z" fill="white"/>
</mask>
<g mask="url(#mask0_1_8001)">
<path d="M14.1198 1.32294C13.3802 0.619812 12.4011 0.229187 11.3594 0.229187C10.3177 0.229187 9.33334 0.619812 8.59897 1.32294L8.15105 1.75523L7.70313 1.32294C6.96355 0.619812 5.98438 0.229187 4.94272 0.229187C3.89584 0.229187 2.91668 0.619812 2.17709 1.32294C0.65626 2.78648 0.65626 5.15627 2.17709 6.61981L7.95834 12.1511C8.01043 12.2031 8.07814 12.2292 8.15105 12.2292C8.21876 12.2292 8.29168 12.2031 8.34376 12.1511L14.1198 6.61981C15.6406 5.15627 15.6406 2.78648 14.1198 1.32294Z" fill="black"/>
</g>
</svg>
