<svg width="12" height="14" viewBox="0 0 12 14" fill="none" xmlns="http://www.w3.org/2000/svg">
<mask id="mask0_11_4" style="mask-type:luminance" maskUnits="userSpaceOnUse" x="4" y="11" width="4" height="3">
<path d="M4 11.3333H8V13.6875H4V11.3333Z" fill="white"/>
</mask>
<g mask="url(#mask0_11_4)">
<path d="M7.48958 12.7084C7.45833 12.6667 7.40104 12.6407 7.36458 12.6459L4.61458 12.6615C4.61458 12.6615 4.51562 12.6875 4.48958 12.7292C4.45833 12.7709 4.45312 12.8229 4.47396 12.8698C4.73958 13.4688 5.33333 13.8542 5.98437 13.8542C6.65104 13.8542 7.24479 13.4636 7.5 12.8542C7.52083 12.8021 7.51562 12.75 7.48958 12.7084Z" fill="black"/>
</g>
<mask id="mask1_11_4" style="mask-type:luminance" maskUnits="userSpaceOnUse" x="0" y="0" width="12" height="13">
<path d="M0 0.6875H12V12.6667H0V0.6875Z" fill="white"/>
</mask>
<g mask="url(#mask1_11_4)">
<path d="M11.8594 11.2344L10.1719 9.82814V6.07814C10.1719 4.17709 8.90104 2.56772 7.16146 2.0573C7.17187 2.00001 7.18229 1.94793 7.18229 1.88543C7.18229 1.22918 6.64583 0.692719 5.98438 0.692719C5.32292 0.692719 4.78646 1.22918 4.78646 1.88543C4.78646 1.94793 4.79687 2.00001 4.80729 2.0573C3.06771 2.56772 1.79688 4.17188 1.79688 6.07814V9.82814L0.104167 11.2344C0.0364587 11.2917 0 11.375 0 11.4636V11.7604C0 11.9271 0.130208 12.0625 0.296875 12.0625H11.6719C11.8333 12.0625 11.9688 11.9271 11.9688 11.7604V11.4636C11.9688 11.375 11.9271 11.2917 11.8594 11.2344ZM5.39062 1.93751C5.39062 1.92188 5.38542 1.90626 5.38542 1.88543C5.38542 1.5573 5.65625 1.28647 5.98438 1.28647C6.31771 1.28647 6.58333 1.5573 6.58333 1.88543C6.58333 1.90626 6.57812 1.92188 6.57812 1.93751C6.38021 1.91147 6.18229 1.88543 5.98438 1.88543C5.78125 1.88543 5.58333 1.90626 5.39062 1.93751Z" fill="black"/>
</g>
</svg>
