<svg width="8" height="8" viewBox="0 0 8 8" fill="none" xmlns="http://www.w3.org/2000/svg">
<mask id="mask0_16_2" style="mask-type:luminance" maskUnits="userSpaceOnUse" x="0" y="0" width="8" height="8">
<path d="M0.4375 0.614586H7.4375V7.61459H0.4375V0.614586Z" fill="white"/>
</mask>
<g mask="url(#mask0_16_2)">
<path d="M3.43231 0.625004C1.77085 0.645837 0.437514 2.00521 0.453139 3.66667C0.473972 5.32813 1.83335 6.66146 3.49481 6.64584C4.10939 6.63542 4.70835 6.44271 5.20835 6.08855L6.9271 7.80209C7.11981 8 7.43751 7.9948 7.63543 7.80209C7.82293 7.60417 7.82293 7.29167 7.63543 7.09896L5.91668 5.38021C6.88022 4.02605 6.56251 2.14584 5.20835 1.1823C4.68751 0.812503 4.06772 0.619796 3.43231 0.625004ZM3.39585 1.14584C4.76564 1.10938 5.91147 2.1875 5.94793 3.5625C5.94793 3.58854 5.94793 3.60938 5.94793 3.63542C5.94793 5.00521 4.83856 6.1198 3.46356 6.1198C2.09376 6.1198 0.979181 5.01042 0.979181 3.63542C0.973973 2.28646 2.04689 1.1875 3.39585 1.14584Z" fill="#737373"/>
</g>
<path d="M2.79167 1.79167C2.92708 1.7448 3.07813 1.81251 3.125 1.94792C3.17708 2.08334 3.10417 2.23438 2.96875 2.28126C2.40104 2.48959 2.02604 3.03126 2.02604 3.63542C2.02604 3.78126 1.90625 3.89584 1.76562 3.89584C1.61979 3.89584 1.5 3.78126 1.5 3.63542C1.5 2.81251 2.01563 2.07292 2.79167 1.79167Z" fill="#737373"/>
</svg>
