<svg width="37" height="37" viewBox="0 0 37 37" fill="none" xmlns="http://www.w3.org/2000/svg">
<mask id="mask0_9_2" style="mask-type:luminance" maskUnits="userSpaceOnUse" x="0" y="0" width="37" height="37">
<path d="M0.65625 0.989594H36.6562V36.9896H0.65625V0.989594Z" fill="white"/>
</mask>
<g mask="url(#mask0_9_2)">
<path d="M36.9219 19.1198C36.9219 29.1354 28.8021 37.2552 18.7865 37.2552C8.77604 37.2552 0.65625 29.1354 0.65625 19.1198C0.65625 9.10418 8.77604 0.989594 18.7865 0.989594C28.8021 0.989594 36.9219 9.10418 36.9219 19.1198Z" fill="#545454"/>
</g>
<path d="M25.2292 13.3906C25.2292 16.9583 22.3333 19.8542 18.7656 19.8542C15.1927 19.8542 12.3021 16.9583 12.3021 13.3906C12.3021 9.81771 15.1927 6.92188 18.7656 6.92188C22.3333 6.92188 25.2292 9.81771 25.2292 13.3906Z" fill="white"/>
<mask id="mask1_9_2" style="mask-type:luminance" maskUnits="userSpaceOnUse" x="6" y="20" width="26" height="17">
<path d="M6 20H31.3333V36.9896H6V20Z" fill="white"/>
</mask>
<g mask="url(#mask1_9_2)">
<path d="M18.7656 36.3906C23.3385 36.3906 27.5156 34.6979 30.7083 31.901C29.7187 25.4375 26.8021 20.9479 18.7656 20.9479C10.9531 20.9479 7.93228 25.4583 6.86978 31.9427C10.0521 34.7135 14.2135 36.3906 18.7656 36.3906Z" fill="white"/>
</g>
</svg>
